<svg id="Layer_1" data-name="Layer 1" xmlns="http://www.w3.org/2000/svg" viewBox="0 0 400 400"><defs><style>.cls-1{fill:#333;opacity:0.2;}.cls-2,.cls-3{fill:#999;}.cls-2{stroke:#fa4b6b;stroke-width:5px;}.cls-2,.cls-6{stroke-linecap:round;stroke-miterlimit:10;}.cls-4{fill:#fff;}.cls-5{fill:#d4145a;}.cls-6{fill:none;stroke:#fff;stroke-width:4px;}</style></defs><circle class="cls-1" cx="201.26" cy="140.36" r="132.86"/><ellipse class="cls-2" cx="73.3" cy="312.58" rx="11.89" ry="3.71"/><ellipse class="cls-2" cx="108.96" cy="320.76" rx="11.89" ry="3.71"/><ellipse class="cls-2" cx="134.29" cy="333.4" rx="11.89" ry="3.71"/><ellipse class="cls-2" cx="165.76" cy="324.47" rx="11.89" ry="3.71"/><ellipse class="cls-2" cx="158.06" cy="312.58" rx="11.89" ry="3.71"/><ellipse class="cls-2" cx="134.29" cy="316.3" rx="11.89" ry="3.71"/><ellipse class="cls-2" cx="116.84" cy="308.87" rx="11.89" ry="3.71"/><ellipse class="cls-2" cx="97.07" cy="332.65" rx="11.89" ry="3.71"/><ellipse class="cls-2" cx="128.73" cy="357.93" rx="11.89" ry="3.71"/><ellipse class="cls-2" cx="43.86" cy="345.96" rx="11.89" ry="3.71"/><path class="cls-3" d="M297,324.68c-5.72-.18-16.15-7.05-16-16.37l3.47-110-3.2-54.93v-.07c0-3.58-12.61-23.51-19.39-34.21-7.34-11.6-11.2-17.76-11.8-20.12a28.44,28.44,0,0,0-1.3-3.72c-1.28-3.17-2.73-6.77.26-11.57l.32-.51,31.48-18.85a14.14,14.14,0,0,1,13.44-9.69,13.71,13.71,0,0,1,2.35.2c6.28,1,12.81,6.54,12.81,14A8.29,8.29,0,0,1,308,63a11,11,0,0,0-.55,1c-.09.25-.2.49-.31.74a14.16,14.16,0,0,1-19.49,6.58,82.38,82.38,0,0,0-10.92,11.93c.76,8.18,15.77,30.81,19.73,32.71l26.32,2.81c2.64,0,10.29-.18,17.06-.34h.5c10.51,0,22.3,8.46,22.36,19.78.14,23.83,6.73,68.67,6.79,69.12,2.55,14.72-.28,21.82-3.1,25.17a10,10,0,0,1-7.66,3.7,11.83,11.83,0,0,1-8.72-4.21,15.25,15.25,0,0,1-3.51-12c.55-4.33.29-10.61-.42-17.71l.94,106.12c.19,9.24-7.69,14.33-13,15.48a12.46,12.46,0,0,1-2.66.29c-7.6,0-14.63-6.82-15.06-14.59v-.13l-.21-102.29h-.71L310.6,309.54c-.52,9.07-5.82,15.14-13.18,15.14Z"/><path class="cls-4" d="M294.32,47.16a10.94,10.94,0,0,1,1.91.16C301.76,48.23,307,53,307,58.82c0,1.52-1.29,3-1.83,4.3a6.5,6.5,0,0,1-.25.61,11.65,11.65,0,0,1-16.5,5.13,7.32,7.32,0,0,1-.9-.59c-5.8,4.4-13.26,13.82-13.26,14.37,0,8.61,17.16,34.72,21.71,35.79l26.74,2.85c2.48,0,9.89-.17,17.25-.34h.44c9.6,0,19.81,7.71,19.86,17.29.14,24.29,6.82,69.48,6.82,69.48,3.28,19-2.43,26-8.29,26-5.3,0-10.73-5.72-9.75-13.44,2.4-19-10.36-75.86-11.15-75.86,0,0,0,0,0,.17l5.74,52.67,1,111.14c.16,7.58-6.35,12-11.07,13a10.29,10.29,0,0,1-2.13.23c-6.28,0-12.21-5.79-12.56-12.23l-.21-104.78H313L308.1,309.42c-.4,7-4.11,12.76-10.68,12.76h-.34c-4.83-.15-13.69-6.23-13.54-13.82L287,198.3l-3.2-55c0-7.15-29.93-49.71-31.27-55S248,80.21,251.2,75L283,56a11.66,11.66,0,0,1,11.31-8.83m0-5a16.61,16.61,0,0,0-15.48,10.5L248.63,70.74l-1,.62-.64,1c-3.65,5.88-1.8,10.48-.45,13.83a25.22,25.22,0,0,1,1.19,3.39c.68,2.63,3.69,7.52,12.12,20.84,6.39,10.11,18.27,28.87,19,33h0v.14L282,198.37,278.54,308.2v.06c-.21,10.46,11,18.69,18.38,18.92h.5c8.77,0,15.07-7,15.67-17.48v-.06l.68-14.51,0,14.27v.26c.49,9,8.69,17,17.55,17a15.5,15.5,0,0,0,3.19-.34,20.65,20.65,0,0,0,9.83-5.39,17,17,0,0,0,5.18-12.59l-.66-73.9a14.1,14.1,0,0,0,9.87,4.29,12.41,12.41,0,0,0,9.57-4.59c5.72-6.79,5.15-18.53,3.66-27.2-.27-1.83-6.63-45.45-6.76-68.72,0-6-2.93-11.71-8.15-16a26.7,26.7,0,0,0-16.71-6.21h-.56c-6.64.15-14.15.33-16.87.34l-25.53-2.72c-1.54-1.28-5.66-6.08-10.51-14-4.69-7.65-6.89-13.06-7.5-15.68a87.09,87.09,0,0,1,8.71-9.59,16.66,16.66,0,0,0,21.32-8.45v0c.1-.22.22-.5.35-.83.08-.16.26-.48.39-.71A10.66,10.66,0,0,0,312,58.82c0-8.74-7.57-15.21-14.91-16.43a16.28,16.28,0,0,0-2.75-.23Z"/><path class="cls-3" d="M304.55,116.67a28,28,0,0,1-28-28c0-.61,0-1.22.07-1.83a28.06,28.06,0,0,1,10.24-19.89l1.35-1.11,1.51.9A9.06,9.06,0,0,0,294.32,68a9.18,9.18,0,0,0,8.31-5.3,2.3,2.3,0,0,0,.15-.35l.58-1.75,1.84,0a25.14,25.14,0,0,1,3.26.27,28,28,0,0,1-3.91,55.78Z"/><path class="cls-4" d="M305.15,63.12a24,24,0,0,1,3,.24A25.52,25.52,0,1,1,279,88.64c0-.55,0-1.1.06-1.64a25.48,25.48,0,0,1,9.33-18.14,11.65,11.65,0,0,0,16.5-5.13,6.5,6.5,0,0,0,.25-.61m-3.58-5.07-1.15,3.45-.06.14a6.69,6.69,0,0,1-6,3.84,6.55,6.55,0,0,1-3.36-.92l-3-1.79L285.23,65a30.64,30.64,0,0,0-11.15,21.67c-.05.65-.07,1.32-.07,2a30.54,30.54,0,0,0,12.92,24.93,30.21,30.21,0,0,0,17.62,5.6,30.53,30.53,0,0,0,4.24-60.76,27.26,27.26,0,0,0-3.54-.29l-3.68-.07Z"/><path class="cls-5" d="M180.62,338.74c-3.26-1.91-8.61-5.91-9.35-10.38-.42-2.5.61-4.94,3.14-7.46l2.32-2.31-3.11-1c-.09,0-7.37-2.41-14.31-5.51,3-.53,7-1.12,10.57-1.55l9.63-1.17-9.31-2.74a14.63,14.63,0,0,1-5.43-2.94l-.21-.17c-2.95-2.36-4.47-5.05-4.4-7.79s1.84-5.6,5-8c9.5,7.42,18.66,11.17,27.24,11.17,8.24,0,15.55-3.67,19.54-9.82,8.12-12.5,28.21-15.14,34.17-15.65,2-.17,4.07-.26,6.06-.26,23.36,0,42.47,12,47.56,29.77,2.29,8,1.36,15.33-2.69,21.21-5.45,7.9-16.35,12.93-30.69,14.16-1.74.15-3.56.23-5.4.23-10.49,0-22.31-2.51-30.86-6.55-5.16-2.44-15.34-6.53-25.52-6.53-8.37,0-15.17,2.7-20.21,8l-.1.11Z"/><path class="cls-4" d="M252.15,275.15c22.45,0,40.79,11.38,45.63,28.32,2.12,7.41,1.28,14.16-2.42,19.52-5.1,7.41-15.48,12.13-29.21,13.31-1.68.14-3.45.22-5.23.22-10.21,0-21.71-2.44-30-6.36-5.32-2.51-15.81-6.72-26.38-6.72-8.95,0-16.23,2.91-21.66,8.66l-.2.21-.17.24L180.07,336c-2.82-1.9-6.32-4.91-6.83-8-.11-.67-.44-2.7,2.58-5.71l4.64-4.62-6.22-2c-.06,0-3.35-1.09-7.58-2.73l3.46-.45,19.26-2.34-18.62-5.47a12.73,12.73,0,0,1-4.73-2.57l-.23-.18c-1.7-1.36-3.71-3.54-3.64-6.17.05-1.82,1.11-3.73,3-5.5,9.4,7.05,18.53,10.61,27.18,10.61,8.92,0,16.86-4,21.22-10.73,2.84-4.37,7.67-7.93,14.36-10.59a67.23,67.23,0,0,1,18.3-4.16c2-.16,3.95-.25,5.89-.25h0m0-4q-3.06,0-6.23.27c-11.57,1-28.36,5.29-35.67,16.55-3,4.67-9.21,8.91-17.87,8.91-7.39,0-16.6-3.1-27.19-11.68l-.62.45c-8,5.66-8.63,13.52-1.25,19.41a16.85,16.85,0,0,0,6.33,3.47S152,310.68,154,311.76a149.3,149.3,0,0,0,19,7.72c-12,12,8.23,21.87,8.23,21.87l4.55-6.5c5.21-5.51,11.95-7.41,18.76-7.41,9.39,0,18.91,3.62,24.67,6.34a78.66,78.66,0,0,0,31.71,6.74c1.87,0,3.73-.08,5.57-.24,27.34-2.34,40.89-17.76,35.14-37.91-5.32-18.59-25-31.22-49.49-31.22Z"/><path class="cls-6" d="M195.81,327.92c2.93,2.67,8.44,2,9.18-1h0c1.88-10.13-2.07-22.4-9.9-31.51h0c-1.92-2.21-7.27-1.29-8,1.58"/><path class="cls-6" d="M204.36,326.62c1.71,3.63,8.56,3.74,9.28.58h0c3.57-8.63-21.25-3.59-8.78-9.89,3.57-1.8,32.77,11.57,45.11,6.71"/><path class="cls-4" d="M245.25,299.44a15.72,15.72,0,0,1,.72-3.6,5.57,5.57,0,0,1,2.25-2.62,12.41,12.41,0,0,1,5.23-1.66,17.6,17.6,0,0,1,5.52.09,12.85,12.85,0,0,1,4.88,1.86,8.5,8.5,0,0,1,3.19,3.67v0l3.17-.44a1.24,1.24,0,0,1,1.23.41h0c.14.3-.2.6-.74.67l-2.38.33c-.51.07-.82.33-.76.62a5.15,5.15,0,0,1-1.28,4.77,10.38,10.38,0,0,1-5.44,2.85c-.57.14-1.24-.05-1.39-.38L258,302.85c-.12-.25.1-.51.51-.63a6.33,6.33,0,0,0,2.21-1.07,2.53,2.53,0,0,0,.93-1.25c.12-.4-.54-.73-1.25-.64l-8.1,1.11c-.44.06-.75.27-.77.52l0,.19a14.32,14.32,0,0,1-.64,3.6,5.41,5.41,0,0,1-2.23,2.6,12.6,12.6,0,0,1-5.28,1.67,16.42,16.42,0,0,1-5.75-.16,12.44,12.44,0,0,1-4.66-2,9.12,9.12,0,0,1-2.65-2.87,1.26,1.26,0,0,0-1.22-.38l-2.42.33a1.25,1.25,0,0,1-1.24-.41h0c-.13-.29.2-.6.74-.67l2.54-.35c.5-.07.82-.33.75-.61a4.7,4.7,0,0,1,1.13-4.64,10.25,10.25,0,0,1,5.06-2.69c.57-.14,1.25,0,1.41.38l1.49,3.25c.11.24-.08.49-.48.62a5.44,5.44,0,0,0-1.91,1,2.29,2.29,0,0,0-.75,1c-.14.39.54.72,1.25.63l7.79-1.07c.42-.06.74-.26.76-.5Zm-1.43,4.17a3.83,3.83,0,0,0,.89-1.37c.16-.4-.5-.76-1.24-.66l-6.73.92c-.61.08-1,.45-.7.76a4.11,4.11,0,0,0,1.68,1.17,6.68,6.68,0,0,0,3.38.28A4.73,4.73,0,0,0,243.82,303.61Zm15.37-7.5a7.84,7.84,0,0,0-3.63-.29A4.6,4.6,0,0,0,252.8,297a3.92,3.92,0,0,0-.86,1.49c-.13.4.53.74,1.25.64l7.18-1c.6-.08.95-.43.7-.74A4,4,0,0,0,259.19,296.11Z"/></svg>