<svg id="Layer_1" data-name="Layer 1" xmlns="http://www.w3.org/2000/svg" viewBox="0 0 400 400"><defs><style>.cls-1{fill:#333;opacity:0.2;}.cls-2{fill:#999;}.cls-2,.cls-5,.cls-6{stroke:#fff;stroke-miterlimit:10;}.cls-2,.cls-5{stroke-width:5px;}.cls-3{fill:#d4145a;}.cls-4{fill:#fff;}.cls-5,.cls-6{fill:none;stroke-linecap:round;}.cls-6{stroke-width:4px;}.cls-7{fill:#666;}</style></defs><circle class="cls-1" cx="201.26" cy="140.36" r="132.86"/><circle class="cls-2" cx="209.02" cy="275.72" r="30.53"/><path class="cls-3" d="M195.7,211.64c-35.75,0-60-16.68-63.18-43.54-2-16.77,6.86-33.06,15.07-41.92,6.51-7,17.11-20.83,15-34.49-1.25-8-6.61-14.69-15.94-20l-.09,0L135.45,67c4.2-3.54,14-10.55,26-10.55a32.65,32.65,0,0,1,16.84,4.85l1.66,1L181,60.66A149.57,149.57,0,0,1,197,40.45c1.23,2.89,3,10.1,4.17,16.36l1,5.29,2.72-4.65a19,19,0,0,1,6.71-6.29l.38-.23a32.83,32.83,0,0,1,17.62-5.09,34.39,34.39,0,0,1,20.66,6.95C232.7,64.2,224.34,75.52,225.33,86.46c.8,8.8,8.16,16.78,19.68,21.34a51.47,51.47,0,0,1,33,41.75c3.7,30.8-24,56-67.37,61.17A125.69,125.69,0,0,1,195.7,211.64Z"/><path class="cls-4" d="M196.14,44.23c1,3.42,2.19,8.51,3,12.94l2,10.59,5.42-9.3a17.1,17.1,0,0,1,6.06-5.6l.38-.25a30.88,30.88,0,0,1,16.55-4.77,32.35,32.35,0,0,1,17.1,4.92c-16.48,11.32-24.31,22.7-23.29,33.88.87,9.57,8.7,18.17,20.93,23C270.47,120,275.17,143,276,149.79c3.56,29.63-23.42,53.87-65.62,59a123.73,123.73,0,0,1-14.67.9c-17,0-31.75-3.89-42.53-11.24a42.16,42.16,0,0,1-18.67-30.54c-1.93-16.09,6.63-31.77,14.55-40.32,15.74-17,16.46-29.94,15.49-36.16-1.35-8.62-7-15.81-16.93-21.38l-.2-.11-.21-.09-7.87-3.34c4.73-3.48,12.71-8,22.12-8A30.62,30.62,0,0,1,177.27,63l3.32,2,2.09-3.25a153,153,0,0,1,13.46-17.51m1-6.63a.57.57,0,0,0-.4.19C187.4,47,179.32,59.57,179.32,59.57a34.49,34.49,0,0,0-17.87-5.13c-17.06,0-29.65,13.18-29.65,13.18l13.84,5.87c27.76,15.63,11,40,.48,51.33-9.93,10.71-17.5,27.64-15.59,43.52,3.43,28.57,29.21,45.3,65.17,45.3a128.62,128.62,0,0,0,15.15-.93c43.69-5.25,73-31,69.11-63.4-1.65-13.73-10.22-33.88-34.21-43.37-18.43-7.3-33.31-27.26,7.87-53l-1-.77a36.37,36.37,0,0,0-23.14-8.36,34.74,34.74,0,0,0-18.69,5.4c-1.77,1.12-5.45,3.25-7.75,7.2,0,0-3.49-18.84-5.92-18.84Z"/><path class="cls-5" d="M160.15,85.85c-5.88,3.25-4.74,9.81,1.83,10.92h0c21.77,3,48.42-.73,68.4-9.28h0c4.84-2.09,3.08-8.48-3.07-9.51"/><path class="cls-2" d="M159.32,382.17V358.5c0-8.55-.51-17.92-4.43-25.77,0,0-24.48-53.24-26.08-59.51-1.63-6.43.51-14.25,4.36-20.43l5.49-9.53,21.79-39.85a14.57,14.57,0,0,1,27.19,7.3,14.35,14.35,0,0,1-2,7.25l-21.11,37c-3.3,5.69-7.78,13.3-5.18,20.27l19.05,36.88c2.37,3.83,6.05,5.72,12.42,7.22l27.8,4a24.59,24.59,0,0,0,17.42-7.22L255.18,292a14.52,14.52,0,0,0,2.3-17.54l-10.17-19.91a14.38,14.38,0,0,1-2-7.26A14.57,14.57,0,0,1,272.54,240l14.34,32.31a25,25,0,0,1-4,30.15l-26.29,33.27a32.18,32.18,0,0,0-9.43,22.77l-4,23.67"/><path class="cls-6" d="M162.61,96c-7.9,1.75-8.43,9.82-1.65,10.91h0c18.48,4.87,8.65-24.81,21.72-9.6,3.74,4.34-26.35,37.79-16.37,52.73"/><path class="cls-4" d="M219.55,146.39a58.83,58.83,0,0,1,7.73,1.13,12.73,12.73,0,0,1,5.55,2.86,11,11,0,0,1,3.37,6.29,11.73,11.73,0,0,1-.43,6.51,12.45,12.45,0,0,1-4.23,5.62,19.36,19.36,0,0,1-8,3.48h-.06l.8,3.77a1.21,1.21,0,0,1-.93,1.43h0a1.21,1.21,0,0,1-1.42-.93l-.6-2.83a1.22,1.22,0,0,0-1.3-.95,18,18,0,0,1-10.25-1.87,12.6,12.6,0,0,1-5.91-6.64,1.2,1.2,0,0,1,.87-1.62l7-1.48a1.2,1.2,0,0,1,1.33.66,7.1,7.1,0,0,0,2.22,2.69,6.55,6.55,0,0,0,2.66,1.19,1.2,1.2,0,0,0,1.42-1.43l-2.05-9.64a1.2,1.2,0,0,0-1.08-.95l-.42,0a53.18,53.18,0,0,1-7.74-1,12.53,12.53,0,0,1-5.51-2.83,11.14,11.14,0,0,1-3.39-6.36,10.85,10.85,0,0,1,.59-6.77,12.93,12.93,0,0,1,4.49-5.35,19.84,19.84,0,0,1,6.3-2.91,1.2,1.2,0,0,0,.88-1.41l-.61-2.89a1.2,1.2,0,0,1,.92-1.42h0a1.2,1.2,0,0,1,1.43.92l.64,3a1.2,1.2,0,0,0,1.3.93,16.58,16.58,0,0,1,9.95,1.7,12.52,12.52,0,0,1,5.59,6.17,1.21,1.21,0,0,1-.87,1.64l-7.09,1.5a1.19,1.19,0,0,1-1.3-.6,6.52,6.52,0,0,0-2-2.34,5.85,5.85,0,0,0-2.14-1,1.2,1.2,0,0,0-1.41,1.43l2,9.27a1.22,1.22,0,0,0,1.06.95Zm-9-2a11,11,0,0,0,2.92,1.16,1.21,1.21,0,0,0,1.49-1.41l-1.71-8a1.19,1.19,0,0,0-1.6-.87,6.12,6.12,0,0,0-2.61,1.88,4.68,4.68,0,0,0-.74,4A4.88,4.88,0,0,0,210.59,144.38Zm15.54,18.72a5.27,5.27,0,0,0,.78-4.27,4.8,4.8,0,0,0-2.36-3.34,11.5,11.5,0,0,0-3.17-1.13,1.21,1.21,0,0,0-1.45,1.42l1.82,8.56a1.18,1.18,0,0,0,1.57.88A5.9,5.9,0,0,0,226.13,163.1Z"/><path class="cls-7" d="M97.79,191.43,22.34,175.1a1.5,1.5,0,0,1,.64-2.93H23Z"/><path class="cls-7" d="M104.63,132.69,28.29,89a1.5,1.5,0,1,1,1.49-2.6l0,0Z"/><path class="cls-7" d="M132.08,69.3l-35.5-46A1.5,1.5,0,1,1,99,21.44l0,.06Z"/><path class="cls-7" d="M302.21,191.43,377,172.18a1.5,1.5,0,1,1,.75,2.91h0Z"/><path class="cls-7" d="M295.37,132.69l74.81-46.26A1.5,1.5,0,0,1,371.76,89l-.05,0Z"/><path class="cls-7" d="M267.92,69.3,301,21.5a1.5,1.5,0,0,1,2.47,1.71l-.05.06Z"/></svg>